#!OML:ASF G:\JayActor3\Patient Classification 1\Patient 1\Session 6\male.ASF
:FULLY-SPECIFIED
:DEGREES
449
root 5.38805 16.2703 -7.24969 210.387 -119.548 -219.622
lowerback 9.50713 -0.983242 3.05863
upperback 1.82784 -1.10397 -1.67298
thorax -3.51887 -0.603547 -3.32538
lowerneck -4.017 1.65789 3.1515
upperneck -11.6249 3.16452 17.2889
head -2.99171 0.65928 4.74177
rclavicle -2.127e-014 -9.54166e-015
rhumerus -33.6688 -24.5146 -42.9054
rradius 60.669
rwrist -68.9659
rhand -41.3727 -33.5961
rfingers 7.12502
rthumb -14.2908 -63.0843
lclavicle -2.127e-014 -9.54166e-015
lhumerus 29.8338 21.5929 78.0997
lradius 90.7356
lwrist 102.123
lhand -43.2063 30.433
lfingers 7.12502
lthumb -16.057 59.7877
rfemur 6.36012 -13.1133 43.3696
rtibia 14.6187
rfoot -21.7664 -23.6057
rtoes 3.34048
lfemur -59.6258 32.1774 5.52922
ltibia 84.0838
lfoot 34.0778 -3.44838
ltoes 19.4808
450
root 5.398 16.2644 -7.28878 209.934 -119.475 -218.901
lowerback 9.82091 -1.04646 2.08717
upperback 1.66719 -1.26809 -1.4317
thorax -3.84815 -0.678168 -2.49836
lowerneck -3.75845 1.92077 3.20583
upperneck -11.9489 3.56406 16.7752
head -3.15793 0.839543 4.56475
rclavicle -3.6477e-014 8.26944e-014
rhumerus -33 -25.7129 -43.1875
rradius 63.1312
rwrist -71.6029
rhand -41.0402 -32.7961
rfingers 7.12502
rthumb -13.9704 -62.3067
lclavicle -3.6477e-014 8.26944e-014
lhumerus 28.2232 21.4784 78.2561
lradius 94.0109
lwrist 104.384
lhand -42.9339 29.2374
lfingers 7.12502
lthumb -15.7947 58.6131
rfemur 5.31527 -12.887 43.2922
rtibia 15.9193
rfoot -22.334 -23.8211
rtoes 3.57292
lfemur -60.0583 31.6449 5.03707
ltibia 83.8312
lfoot 33.5553 -3.6798
ltoes 19.1936
451
root 5.4048 16.2573 -7.3236 209.336 -119.361 -218.062
lowerback 10.1473 -1.04364 1.17964
upperback 1.55644 -1.34829 -1.24297
thorax -4.12466 -0.70731 -1.77344
lowerneck -3.72364 2.10307 3.22207
upperneck -12.1989 3.81559 16.2288
head -3.25057 0.967373 4.38701
rclavicle 1.03368e-014 8.90555e-014
rhumerus -32.4882 -26.9406 -43.5192
rradius 65.6975
rwrist -74.1617
rhand -41.1268 -32.3624
rfingers 7.12502
rthumb -14.0538 -61.8672
lclavicle 1.03368e-014 8.90555e-014
lhumerus 26.7226 21.1651 78.4636
lradius 97.2318
lwrist 106.201
lhand -43.1476 28.8447
lfingers 7.12502
lthumb -16.0005 58.2039
rfemur 4.28555 -12.7908 43.0909
rtibia 17.3221
rfoot -22.9224 -23.9598
rtoes 3.75095
lfemur -60.2393 30.9938 4.56834
ltibia 83.4698
lfoot 33.0183 -3.70247
ltoes 19.2384
452
root 5.41209 16.245 -7.35113 208.965 -119.257 -217.465
lowerback 10.3887 -1.08017 0.4921
upperback 1.43458 -1.46335 -1.07618
thorax -4.36922 -0.753511 -1.19143
lowerneck -3.55595 2.31772 3.42131
upperneck -12.3874 4.0993 15.5385
head -3.34411 1.10884 4.1305
rclavicle -6.29153e-014 -6.36111e-015
rhumerus -31.9564 -27.9102 -44.1386
rradius 68.233
rwrist -76.4793
rhand -40.2207 -32.0007
rfingers 7.12502
rthumb -13.1805 -61.5641
lclavicle -6.29153e-014 -6.36111e-015
lhumerus 25.1276 20.9401 78.5323
lradius 100.381
lwrist 108.036
lhand -42.7685 28.8311
lfingers 7.12502
lthumb -15.6354 58.2192
rfemur 3.28082 -12.731 42.9516
rtibia 18.6998
rfoot -23.496 -23.9867
rtoes 3.87519
lfemur -60.2814 30.3483 4.28037
ltibia 83.0622
lfoot 32.5309 -3.57891
ltoes 19.532
453
root 5.41653 16.2294 -7.37374 208.718 -119.154 -217.045
lowerback 10.5327 -1.1356 -0.0566239
upperback 1.36524 -1.59203 -0.929982
thorax -4.50593 -0.80665 -0.708702
lowerneck -3.40962 2.56623 3.7334
upperneck -12.5385 4.41321 14.8096
head -3.41987 1.26552 3.84281
rclavicle 2.39536e-014 9.54166e-015
rhumerus -31.4826 -28.7412 -45.0011
rradius 70.8823
rwrist -78.6211
rhand -39.9751 -31.5255
rfingers 7.12502
rthumb -12.9438 -61.104
lclavicle 2.39536e-014 9.54166e-015
lhumerus 23.5587 20.6653 78.5055
lradius 103.438
lwrist 109.684
lhand -42.0776 29.0851
lfingers 7.12502
lthumb -14.9699 58.5241
rfemur 2.38915 -12.758 42.8351
rtibia 19.9962
rfoot -23.9883 -23.8952
rtoes 4.01137
lfemur -60.1477 29.6965 4.14166
ltibia 82.6049
lfoot 32.1437 -3.51904
ltoes 19.5636
454
root 5.42275 16.2115 -7.39002 208.606 -119.02 -216.761
lowerback 10.5748 -1.21926 -0.477437
upperback 1.32868 -1.74612 -0.824637
thorax -4.55371 -0.874202 -0.338987
lowerneck -3.25879 2.85321 4.12854
upperneck -12.6305 4.77177 14.1287
head -3.47711 1.44215 3.55548
rclavicle 1.81888e-014 -9.54166e-015
rhumerus -30.944 -29.4004 -46.1145
rradius 73.5616
rwrist -80.7634
rhand -39.5326 -31.946
rfingers 7.12502
rthumb -12.5172 -61.551
lclavicle 1.81888e-014 -9.54166e-015
lhumerus 21.9312 20.3661 78.208
lradius 106.149
lwrist 111.83
lhand -41.3826 27.4968
lfingers 7.12502
lthumb -14.3003 56.9843
rfemur 1.57211 -12.7729 42.7185
rtibia 21.1747
rfoot -24.3986 -23.7443
rtoes 4.01226
lfemur -59.8858 29.1076 4.08504
ltibia 82.1071
lfoot 31.8571 -3.44203
ltoes 19.8738
455
root 5.42696 16.1876 -7.40067 208.822 -118.902 -216.872
lowerback 10.5686 -1.2973 -0.624116
upperback 1.31896 -1.86136 -0.727849
thorax -4.55297 -0.927556 -0.139369
lowerneck -3.16793 3.13383 4.58144
upperneck -12.6393 5.10691 13.4999
head -3.49375 1.61056 3.27675
rclavicle 6.4605e-015 -1.90833e-014
rhumerus -30.4963 -29.9548 -47.3711
rradius 76.3586
rwrist -82.9372
rhand -39.5946 -32.1795
rfingers 7.12502
rthumb -12.577 -61.781
lclavicle 6.4605e-015 -1.90833e-014
lhumerus 20.3054 19.891 77.8294
lradius 109.045
lwrist 113.27
lhand -40.8194 27.013
lfingers 7.12502
lthumb -13.7576 56.5381
rfemur 0.869882 -12.7974 42.7437
rtibia 22.2518
rfoot -24.7417 -23.5095
rtoes 4.07477
lfemur -59.4597 28.5967 4.279
ltibia 81.574
lfoot 31.6154 -3.66042
ltoes 19.6366
